<?xml version="1.0" encoding="utf-8"?>
<!-- Generator: Adobe Illustrator 19.2.0, SVG Export Plug-In . SVG Version: 6.00 Build 0)  -->
<svg version="1.1" id="_1" xmlns="http://www.w3.org/2000/svg" xmlns:xlink="http://www.w3.org/1999/xlink" x="0px" y="0px"
	 viewBox="0 0 20 16" style="enable-background:new 0 0 20 16;" xml:space="preserve">
<style type="text/css">
	.st0{fill:#FFFFFF;}
</style>
<title>phone</title>
<path class="st0" d="M18,0H2C0.9,0,0,0.9,0,2v12c0,1.1,0.9,2,2,2h16c1.1,0,2-0.9,2-2V2C20,0.9,19.1,0,18,0z M16.6,2L9.9,7.4L3.3,2
	H16.6z M17,14H3c-0.6,0-1-0.4-1-1V3.5L9.9,10L18,3.4V13C18,13.6,17.6,14,17,14z"/>
</svg>
